<?xml version="1.0" standalone="no"?>
<!DOCTYPE svg PUBLIC "-//W3C//DTD SVG 20010904//EN"
 "http://www.w3.org/TR/2001/REC-SVG-20010904/DTD/svg10.dtd">
<svg version="1.0" xmlns="http://www.w3.org/2000/svg"
 width="1746.000000pt" height="1746.000000pt" viewBox="0 0 1746.000000 1746.000000"
 preserveAspectRatio="xMidYMid meet">
<metadata>
Created by potrace 1.11, written by Peter Selinger 2001-2013
</metadata>
<g transform="translate(0.000000,1746.000000) scale(0.100000,-0.100000)"
fill="#000000" stroke="none">
<path d="M8275 17074 c-22 -2 -110 -9 -195 -15 -1659 -117 -3293 -768 -4616
-1840 -416 -337 -886 -807 -1223 -1223 -1159 -1431 -1815 -3196 -1860 -5006
-7 -293 1 -711 18 -915 66 -795 229 -1535 493 -2245 562 -1512 1539 -2820
2828 -3787 1173 -880 2556 -1435 4005 -1608 309 -37 474 -46 871 -52 417 -6
646 2 959 33 1749 172 3358 873 4705 2050 174 151 583 560 734 734 1124 1287
1820 2825 2025 4480 50 397 55 510 55 1050 0 540 -5 653 -55 1050 -179 1439
-732 2803 -1610 3970 -1364 1811 -3405 2997 -5629 3270 -375 46 -482 52 -980
55 -267 1 -503 1 -525 -1z m55 -648 c0 -2 7 -66 15 -141 9 -76 14 -139 12
-141 -2 -2 -58 -10 -125 -17 -67 -7 -125 -17 -129 -21 -4 -4 31 -369 77 -811
46 -442 82 -806 80 -809 -6 -5 -273 -34 -278 -31 -2 2 -42 367 -88 811 -47
445 -87 810 -89 812 -1 2 -59 -3 -129 -9 -69 -7 -128 -11 -130 -8 -5 5 -37
281 -33 285 4 4 728 81 775 83 23 0 42 -1 42 -3z m731 -106 c-2 -132 -40
-1696 -44 -1770 l-2 -54 -140 3 c-77 1 -142 4 -144 6 -4 5 38 1736 45 1843 l6
83 140 -3 141 -3 -2 -105z m866 40 c181 -30 288 -144 314 -337 11 -76 8 -97
-84 -683 -54 -336 -105 -631 -117 -664 -52 -152 -165 -253 -302 -272 -55 -8
-161 9 -222 36 -123 52 -206 198 -206 361 0 84 185 1235 208 1297 55 143 153
238 273 261 61 12 66 12 136 1z m-2836 -142 c6 -24 98 -363 204 -754 106 -390
196 -737 199 -770 15 -129 -44 -283 -134 -350 -107 -80 -275 -102 -383 -52
-76 36 -148 111 -191 201 -26 52 -90 276 -236 813 -110 407 -200 745 -200 751
0 12 262 85 271 75 3 -4 95 -335 203 -737 108 -401 202 -743 208 -759 22 -56
56 -86 98 -86 50 0 80 35 80 94 0 22 -92 379 -204 791 -112 413 -203 751 -201
753 5 5 239 70 257 71 12 1 21 -12 29 -41z m3989 -201 c-1 -29 -16 -284 -34
-567 -18 -283 -32 -517 -30 -519 2 -2 6 -2 7 0 2 2 81 231 176 509 95 278 177
509 181 514 5 5 61 -10 129 -34 l120 -42 -36 -102 c-19 -55 -158 -461 -309
-901 -151 -440 -276 -806 -279 -812 -3 -9 -37 -1 -122 28 -65 23 -119 43 -121
44 -2 2 13 256 33 565 19 310 33 565 30 568 -2 3 -7 -1 -10 -9 -2 -8 -82 -239
-176 -514 -94 -275 -173 -502 -174 -504 -5 -4 -228 69 -239 79 -4 5 132 418
304 918 l312 910 119 -40 119 -40 0 -51z m-5198 -1027 c187 -410 343 -749 347
-753 4 -4 83 26 175 68 93 42 169 75 170 73 25 -40 104 -234 99 -239 -11 -11
-553 -259 -578 -264 -18 -5 -64 92 -419 872 -220 482 -395 878 -390 880 5 2
61 28 124 57 63 30 119 54 124 52 4 -1 161 -337 348 -746z m-1101 244 c70 -20
131 -60 195 -126 54 -55 691 -1015 721 -1085 79 -188 44 -365 -94 -466 -98
-71 -129 -82 -233 -82 -84 0 -101 3 -146 27 -122 64 -140 85 -412 496 -380
574 -439 669 -463 731 -27 71 -35 183 -19 249 33 138 205 271 351 272 25 0 70
-7 100 -16z m8242 -95 c146 -55 247 -193 247 -335 0 -54 -26 -156 -51 -207
-27 -53 -179 -277 -189 -277 -3 0 -54 33 -113 73 l-106 73 89 131 c99 147 114
189 83 231 -11 15 -32 33 -47 40 -23 12 -32 11 -69 -7 -24 -12 -52 -33 -63
-48 -55 -75 -623 -905 -651 -952 -50 -83 -43 -145 18 -177 63 -32 100 -4 214
162 l86 124 97 -66 c53 -37 103 -72 110 -79 10 -9 -5 -37 -73 -136 -96 -140
-168 -212 -252 -255 -52 -26 -68 -29 -153 -29 -85 0 -101 3 -155 29 -84 41
-166 126 -193 199 -36 96 -26 221 27 329 33 69 665 987 724 1053 124 137 272
181 420 124z m-8672 -1279 c298 -437 542 -800 543 -806 1 -10 -191 -194 -203
-194 -6 0 -1493 1178 -1515 1200 -11 11 39 66 135 150 l56 49 443 -365 c243
-200 445 -363 447 -360 2 2 -145 215 -327 473 l-332 468 98 93 c54 50 102 91
106 90 5 -2 252 -361 549 -798z m9645 495 c74 -36 158 -120 190 -189 48 -106
42 -208 -22 -336 -31 -61 -82 -118 -410 -457 -489 -506 -520 -535 -599 -573
-165 -79 -304 -57 -428 66 -102 101 -137 218 -102 340 37 128 60 158 438 549
493 509 533 547 610 584 35 17 82 35 103 40 65 17 158 6 220 -24z m-4781 -460
c1078 -105 2070 -526 2895 -1231 147 -126 427 -406 554 -554 1007 -1177 1436
-2718 1180 -4243 -236 -1412 -1053 -2666 -2254 -3462 -1011 -671 -2242 -967
-3440 -830 -1044 121 -2008 541 -2805 1226 -151 129 -420 399 -549 549 -713
832 -1134 1836 -1237 2950 -17 175 -17 686 0 860 62 663 225 1257 500 1825
115 238 196 379 356 620 814 1226 2120 2051 3576 2259 151 22 294 36 509 50
115 8 562 -4 715 -19z m-6255 -281 c70 -54 108 -90 103 -97 -4 -6 -53 -72
-110 -145 l-103 -134 22 -17 c13 -10 102 -79 200 -153 l176 -136 77 99 c42 54
81 99 86 99 12 0 233 -168 237 -181 2 -4 -31 -54 -74 -109 -42 -55 -75 -102
-73 -103 64 -52 400 -307 407 -309 6 -2 59 61 119 139 l110 141 117 -90 c81
-62 114 -93 108 -101 -5 -7 -95 -123 -199 -259 l-190 -247 -767 591 -767 590
34 42 c18 22 107 137 196 254 90 116 167 212 172 212 5 0 59 -39 119 -86z
m11859 -154 l71 -100 -347 -423 c-190 -232 -353 -431 -362 -441 -15 -18 -15
-19 0 -14 9 4 211 144 448 312 238 168 436 306 439 306 8 -1 156 -210 151
-214 -117 -87 -1563 -1101 -1571 -1101 -16 0 -149 187 -144 202 3 6 163 203
355 438 193 234 351 430 351 435 0 5 -201 -133 -446 -307 -245 -173 -449 -311
-454 -307 -25 27 -140 199 -138 206 4 12 1551 1106 1565 1107 6 1 43 -44 82
-99z m-12352 -914 c226 -77 416 -228 464 -368 l17 -51 448 -140 c247 -77 451
-141 452 -143 2 -1 -27 -58 -64 -127 l-67 -125 -71 23 c-131 41 -701 227 -708
232 -11 6 -41 -58 -31 -67 4 -4 161 -89 348 -190 187 -100 343 -185 348 -189
4 -4 -23 -62 -59 -130 -50 -93 -70 -121 -82 -116 -32 12 -1657 889 -1671 901
-11 10 -3 32 50 131 34 65 80 146 101 179 65 104 159 180 255 204 61 15 190 4
270 -24z m13202 -468 l148 -303 -121 -62 c-67 -34 -127 -62 -133 -62 -7 -1
-51 76 -98 169 -47 94 -87 170 -90 170 -3 0 -104 -50 -225 -110 l-220 -110 55
-110 c30 -60 55 -113 55 -118 0 -6 -242 -132 -255 -132 -3 0 -30 51 -61 113
-31 61 -57 113 -59 115 -1 2 -172 -80 -379 -182 l-377 -185 -60 122 c-32 67
-59 127 -59 132 0 9 1701 852 1723 854 5 1 75 -135 156 -301z m-13674 -1952
c50 -21 69 -56 63 -117 -9 -90 -68 -141 -140 -120 -54 16 -81 61 -74 120 8 62
26 94 66 113 42 22 42 22 85 4z m13580 -39 c58 -58 58 -163 -1 -202 -37 -24
-100 -20 -129 9 -49 49 -56 153 -12 193 48 44 98 44 142 0z m-13565 -2514 c55
-50 61 -152 11 -197 -28 -26 -83 -31 -120 -11 -78 40 -83 195 -7 225 42 17 85
11 116 -17z m13551 -19 c67 -34 71 -155 7 -209 -69 -59 -168 -13 -168 78 0 63
18 106 54 128 38 23 67 24 107 3z m-12676 -2328 c70 -30 109 -133 70 -192 -31
-47 -114 -57 -157 -17 -26 23 -58 86 -58 113 0 36 30 81 63 95 40 18 41 18 82
1z m11774 -45 c55 -39 52 -118 -8 -181 -29 -31 -46 -40 -70 -40 -99 0 -144 97
-85 184 44 64 107 79 163 37z m-9680 -1296 c34 -25 61 -49 61 -54 0 -6 -72
-143 -160 -305 -88 -162 -160 -297 -160 -300 0 -3 107 106 237 242 130 136
241 247 245 247 5 0 38 -20 72 -45 l64 -44 -411 -418 c-226 -230 -415 -418
-420 -418 -18 0 -138 92 -135 104 6 23 533 1036 539 1036 4 0 34 -20 68 -45z
m7751 -397 c146 -205 297 -419 336 -475 l73 -101 -72 -50 -73 -50 -144 204
c-79 112 -146 204 -149 204 -14 0 -100 -67 -97 -76 2 -5 67 -99 145 -208 l140
-199 -22 -17 c-65 -49 -120 -81 -127 -74 -4 5 -119 167 -255 359 -137 193
-285 403 -331 467 l-83 117 71 50 71 50 17 -22 c9 -12 72 -100 139 -195 79
-112 126 -170 134 -166 7 4 31 21 54 37 l41 29 -134 188 c-73 104 -135 193
-136 199 -3 9 118 101 132 101 4 0 125 -168 270 -372z m-7147 -13 c44 -26 66
-44 62 -53 -6 -17 -551 -926 -577 -964 l-19 -27 -74 45 -74 45 301 500 c165
275 303 499 307 497 4 -2 37 -21 74 -43z m6317 -83 c52 -25 110 -91 157 -180
l43 -80 -64 -36 c-35 -20 -69 -36 -74 -36 -6 0 -31 37 -56 83 -52 95 -82 118
-122 92 -45 -29 -34 -59 137 -368 189 -343 203 -365 232 -376 27 -10 65 6 72
31 8 24 0 47 -47 130 -21 38 -37 75 -35 82 3 7 33 27 68 45 73 40 66 45 132
-87 86 -174 51 -305 -98 -368 -85 -35 -198 0 -262 83 -16 21 -109 182 -206
358 -194 352 -211 397 -188 483 16 61 43 97 97 128 79 47 139 51 214 16z
m-5949 -122 c159 -80 219 -152 219 -260 0 -130 -126 -346 -222 -380 l-36 -13
-71 -266 c-40 -146 -74 -272 -76 -279 -5 -14 -155 56 -155 73 0 5 29 114 65
240 61 215 64 231 47 243 -15 12 -26 -6 -122 -202 -58 -118 -108 -218 -111
-221 -4 -3 -41 11 -83 32 l-76 38 221 450 c122 248 236 483 254 523 19 39 36
72 40 72 3 0 51 -23 106 -50z m5546 -647 c166 -274 301 -502 300 -508 -1 -10
-122 -65 -142 -65 -5 0 -31 37 -57 83 -74 130 -62 122 -143 88 -38 -17 -69
-36 -69 -43 1 -7 14 -59 29 -116 15 -57 26 -104 24 -106 -12 -8 -132 -56 -142
-56 -13 0 -303 1128 -293 1138 6 5 175 79 186 81 3 1 141 -223 307 -496z
m-4791 331 c61 -37 94 -94 101 -172 5 -55 -13 -128 -66 -264 l-10 -28 -73 26
c-40 14 -76 29 -81 33 -4 4 9 53 28 110 36 101 37 128 10 151 -20 17 -62 5
-76 -22 -26 -48 -259 -711 -259 -736 0 -33 16 -52 45 -52 33 0 53 29 90 127
51 137 50 129 15 142 -35 12 -35 13 1 101 10 27 23 44 31 42 29 -8 184 -63
197 -72 12 -7 -3 -56 -78 -268 -51 -143 -96 -265 -100 -271 -5 -8 -20 -7 -54
5 -41 14 -47 20 -47 44 l0 27 -46 -15 c-42 -14 -51 -13 -99 2 -106 33 -156
135 -124 251 24 88 252 713 274 750 52 89 114 126 206 122 53 -2 76 -9 115
-33z m4022 -115 c13 -44 22 -82 20 -84 -2 -1 -49 -17 -105 -34 l-102 -31 14
-43 c8 -23 28 -88 45 -144 l30 -101 63 19 c34 10 69 19 77 19 10 0 22 -25 38
-78 12 -43 22 -83 22 -89 0 -5 -28 -18 -62 -28 -35 -10 -67 -22 -72 -26 -12
-10 74 -299 88 -299 6 0 54 14 106 30 52 16 95 28 96 27 8 -10 50 -168 45
-171 -31 -17 -364 -107 -370 -100 -9 9 -331 1081 -331 1099 0 10 325 112 360
114 11 1 22 -24 38 -80z m-3550 -35 c39 -10 72 -21 72 -25 0 -13 -292 -1114
-296 -1118 -6 -7 -154 31 -160 41 -9 13 290 1128 301 1124 5 -2 43 -12 83 -22z
m402 -93 c42 -8 38 13 76 -378 15 -161 31 -293 34 -293 3 0 29 141 58 312 29
172 55 314 57 316 4 5 155 -19 155 -24 0 -17 -192 -1140 -196 -1143 -4 -5
-143 15 -149 21 -1 2 -18 154 -36 340 -19 185 -36 334 -38 332 -2 -2 -28 -146
-57 -320 -29 -174 -55 -318 -57 -320 -4 -5 -145 21 -151 27 -2 2 39 262 92
577 l96 573 41 -6 c22 -4 56 -10 75 -14z m2446 -20 c84 -38 141 -140 159 -283
8 -62 -11 -137 -45 -181 l-20 -25 39 -25 c104 -69 170 -297 127 -440 -33 -108
-99 -154 -277 -188 -65 -13 -121 -20 -125 -17 -6 6 -211 1064 -216 1117 -3 23
2 25 82 41 118 24 224 24 276 1z m-1677 -77 c2 -2 -15 -254 -38 -561 -23 -307
-41 -569 -41 -582 0 -23 0 -23 -87 -16 -49 4 -89 8 -90 9 -3 3 75 1068 82
1123 l6 41 82 -5 c45 -3 84 -7 86 -9z m586 -26 c3 -13 46 -266 95 -563 50
-297 93 -550 95 -562 5 -22 3 -23 -80 -23 -47 0 -85 1 -86 3 0 1 -8 52 -17
112 l-18 110 -82 3 c-45 2 -82 -1 -82 -5 0 -17 -21 -189 -26 -210 -4 -21 -10
-23 -83 -23 -43 0 -80 2 -82 5 -4 3 143 1130 151 1162 0 3 82 9 147 11 57 2
63 0 68 -20z"/>
<path d="M9832 16073 c-37 -15 -52 -87 -142 -654 -49 -315 -90 -596 -90 -625
0 -122 123 -154 164 -42 24 65 198 1184 193 1241 -5 61 -29 87 -76 86 -20 0
-42 -3 -49 -6z"/>
<path d="M4653 14955 c-41 -18 -57 -63 -39 -114 15 -44 634 -990 679 -1038 44
-47 78 -58 116 -38 43 22 56 58 38 110 -14 42 -641 1000 -684 1047 -36 38 -72
49 -110 33z"/>
<path d="M13795 14081 c-42 -25 -856 -864 -877 -904 -25 -45 -23 -83 7 -112
29 -30 68 -32 110 -6 33 20 849 857 877 899 59 89 -27 178 -117 123z"/>
<path d="M8370 13469 c-618 -49 -1229 -216 -1752 -480 -959 -483 -1693 -1226
-2170 -2194 -502 -1021 -607 -2269 -283 -3385 117 -404 237 -687 440 -1040
375 -652 865 -1176 1495 -1595 690 -459 1407 -708 2255 -781 229 -20 650 -15
874 11 590 66 1168 236 1646 485 770 399 1355 922 1820 1625 303 458 505 912
639 1435 183 714 194 1518 30 2235 -181 791 -530 1469 -1086 2107 -194 223
-419 430 -688 632 -741 559 -1581 874 -2519 946 -155 12 -547 11 -701 -1z
m531 -3906 l165 -508 541 -5 542 -5 -426 -310 c-234 -170 -431 -313 -436 -317
-11 -7 11 -82 213 -698 60 -184 108 -336 106 -337 -2 -2 -169 117 -372 265
-507 368 -502 364 -515 356 -6 -4 -203 -146 -437 -316 -234 -169 -426 -307
-428 -305 -2 1 71 230 161 507 91 278 165 510 164 515 0 6 -195 152 -434 325
l-435 315 542 5 542 5 71 220 c190 586 259 795 265 795 3 0 80 -228 171 -507z
m-1961 -3 l0 -170 -37 -24 c-21 -13 -284 -161 -586 -329 -387 -216 -543 -307
-535 -314 7 -5 271 -153 586 -328 l572 -318 0 -174 c0 -95 -2 -173 -6 -173 -3
0 -341 187 -752 416 -411 230 -813 453 -894 498 -81 45 -147 83 -148 86 0 3
91 55 203 117 111 62 513 286 892 497 380 212 693 385 698 386 4 0 7 -76 7
-170z m4486 -327 c491 -274 893 -500 893 -503 0 -5 -1768 -991 -1789 -998 -6
-2 -10 62 -10 171 l0 174 580 323 c319 178 580 326 580 330 0 5 -253 149 -562
321 -310 171 -571 319 -580 327 -16 13 -18 36 -18 184 0 92 3 168 6 168 3 0
408 -224 900 -497z"/>
<path d="M2263 12279 c-33 -10 -108 -88 -96 -100 5 -4 98 -55 208 -114 110
-59 219 -118 243 -132 l43 -24 14 35 c31 73 13 138 -55 204 -53 50 -156 106
-236 127 -65 17 -75 17 -121 4z"/>
<path d="M5851 2940 c-41 -81 -70 -153 -67 -159 10 -16 62 -14 95 3 50 26 111
141 111 210 0 34 -21 70 -49 85 -15 9 -27 -9 -90 -139z"/>
<path d="M11233 2735 c3 -11 26 -96 51 -189 25 -93 47 -171 49 -173 2 -2 25 6
51 18 32 14 46 25 42 34 -8 23 -177 309 -188 320 -7 7 -8 4 -5 -10z"/>
<path d="M9870 2525 c0 -8 12 -75 26 -150 30 -152 39 -162 96 -104 29 29 30
33 26 97 -8 110 -52 172 -123 172 -15 0 -25 -6 -25 -15z"/>
<path d="M9960 2058 c0 -29 58 -319 64 -326 3 -2 18 1 34 7 49 21 65 71 51
167 -15 110 -60 174 -121 174 -22 0 -28 -5 -28 -22z"/>
<path d="M8827 2225 c-3 -16 -13 -93 -22 -170 -8 -77 -17 -152 -20 -167 -4
-28 -4 -28 50 -28 66 0 64 -17 30 202 -32 206 -30 198 -38 163z"/>
</g>
</svg>
